<mxfile host="app.diagrams.net" modified="2021-06-22T00:44:34.156Z" agent="5.0 (Windows NT 10.0; Win64; x64) AppleWebKit/537.36 (KHTML, like Gecko) Chrome/91.0.4472.101 Safari/537.36 Edg/91.0.864.48" etag="BB0xtaVWWlq7d0_vJCqJ" version="14.7.7" type="github">
  <diagram id="C5RBs43oDa-KdzZeNtuy" name="Page-1">
    <mxGraphModel dx="2048" dy="1850" grid="1" gridSize="10" guides="1" tooltips="1" connect="1" arrows="1" fold="1" page="1" pageScale="1" pageWidth="827" pageHeight="1169" math="0" shadow="0">
      <root>
        <mxCell id="WIyWlLk6GJQsqaUBKTNV-0" />
        <mxCell id="WIyWlLk6GJQsqaUBKTNV-1" parent="WIyWlLk6GJQsqaUBKTNV-0" />
        <mxCell id="EeYzjJS-_JsJaq9Gbelp-20" value="" style="edgeStyle=orthogonalEdgeStyle;rounded=0;orthogonalLoop=1;jettySize=auto;html=1;fontSize=14;" edge="1" parent="WIyWlLk6GJQsqaUBKTNV-1" source="WIyWlLk6GJQsqaUBKTNV-3">
          <mxGeometry relative="1" as="geometry">
            <mxPoint x="220" y="300" as="targetPoint" />
          </mxGeometry>
        </mxCell>
        <mxCell id="WIyWlLk6GJQsqaUBKTNV-3" value="&lt;div style=&quot;text-align: left&quot;&gt;&lt;span style=&quot;font-size: 14.4px&quot;&gt;&lt;font color=&quot;#333333&quot; face=&quot;lucida console, consolas, courier, monospace&quot;&gt;AbstractProtocol&lt;/font&gt;&lt;/span&gt;&lt;/div&gt;&lt;div style=&quot;text-align: left&quot;&gt;&lt;span style=&quot;font-size: 14.4px&quot;&gt;&lt;font color=&quot;#333333&quot; face=&quot;lucida console, consolas, courier, monospace&quot;&gt;$ConnectionsHanhler&lt;/font&gt;&lt;/span&gt;&lt;/div&gt;" style="rounded=1;whiteSpace=wrap;html=1;fontSize=12;glass=0;strokeWidth=1;shadow=0;" parent="WIyWlLk6GJQsqaUBKTNV-1" vertex="1">
          <mxGeometry x="127.5" y="110" width="185" height="110" as="geometry" />
        </mxCell>
        <mxCell id="EeYzjJS-_JsJaq9Gbelp-12" value="" style="edgeStyle=orthogonalEdgeStyle;rounded=0;orthogonalLoop=1;jettySize=auto;html=1;" edge="1" parent="WIyWlLk6GJQsqaUBKTNV-1" source="EeYzjJS-_JsJaq9Gbelp-0" target="WIyWlLk6GJQsqaUBKTNV-3">
          <mxGeometry relative="1" as="geometry" />
        </mxCell>
        <mxCell id="EeYzjJS-_JsJaq9Gbelp-0" value="&lt;span style=&quot;color: rgb(51 , 51 , 51) ; font-family: &amp;#34;open sans&amp;#34; , &amp;#34;clear sans&amp;#34; , &amp;#34;helvetica neue&amp;#34; , &amp;#34;helvetica&amp;#34; , &amp;#34;arial&amp;#34; , sans-serif ; font-size: 16px ; text-align: left ; background-color: rgb(255 , 255 , 255)&quot;&gt;AbstractEndpoint&lt;br&gt;$Handler&lt;/span&gt;" style="whiteSpace=wrap;html=1;rounded=1;shadow=0;strokeWidth=1;glass=0;" vertex="1" parent="WIyWlLk6GJQsqaUBKTNV-1">
          <mxGeometry x="160" y="-20" width="120" height="60" as="geometry" />
        </mxCell>
        <mxCell id="EeYzjJS-_JsJaq9Gbelp-8" value="" style="edgeStyle=orthogonalEdgeStyle;rounded=0;orthogonalLoop=1;jettySize=auto;html=1;" edge="1" parent="WIyWlLk6GJQsqaUBKTNV-1" target="EeYzjJS-_JsJaq9Gbelp-7">
          <mxGeometry relative="1" as="geometry">
            <mxPoint x="220" y="-400" as="sourcePoint" />
          </mxGeometry>
        </mxCell>
        <mxCell id="EeYzjJS-_JsJaq9Gbelp-14" value="" style="edgeStyle=orthogonalEdgeStyle;rounded=0;orthogonalLoop=1;jettySize=auto;html=1;" edge="1" parent="WIyWlLk6GJQsqaUBKTNV-1" source="EeYzjJS-_JsJaq9Gbelp-4" target="EeYzjJS-_JsJaq9Gbelp-13">
          <mxGeometry relative="1" as="geometry" />
        </mxCell>
        <mxCell id="EeYzjJS-_JsJaq9Gbelp-4" value="&lt;span style=&quot;color: rgb(51 , 51 , 51) ; font-family: &amp;#34;open sans&amp;#34; , &amp;#34;clear sans&amp;#34; , &amp;#34;helvetica neue&amp;#34; , &amp;#34;helvetica&amp;#34; , &amp;#34;arial&amp;#34; , sans-serif ; font-size: 16px ; text-align: left ; background-color: rgb(255 , 255 , 255)&quot;&gt;Thread&lt;/span&gt;" style="whiteSpace=wrap;html=1;rounded=1;shadow=0;strokeWidth=1;glass=0;" vertex="1" parent="WIyWlLk6GJQsqaUBKTNV-1">
          <mxGeometry x="160" y="-584" width="120" height="60" as="geometry" />
        </mxCell>
        <mxCell id="EeYzjJS-_JsJaq9Gbelp-10" value="" style="edgeStyle=orthogonalEdgeStyle;rounded=0;orthogonalLoop=1;jettySize=auto;html=1;" edge="1" parent="WIyWlLk6GJQsqaUBKTNV-1" source="EeYzjJS-_JsJaq9Gbelp-7" target="EeYzjJS-_JsJaq9Gbelp-9">
          <mxGeometry relative="1" as="geometry" />
        </mxCell>
        <mxCell id="EeYzjJS-_JsJaq9Gbelp-7" value="&lt;div style=&quot;text-align: left&quot;&gt;&lt;span style=&quot;font-size: 14.4px&quot;&gt;&lt;font color=&quot;#333333&quot; face=&quot;lucida console, consolas, courier, monospace&quot;&gt;NioEndpoint&lt;/font&gt;&lt;/span&gt;&lt;/div&gt;&lt;div style=&quot;text-align: left&quot;&gt;&lt;span style=&quot;font-size: 14.4px&quot;&gt;&lt;font color=&quot;#333333&quot; face=&quot;lucida console, consolas, courier, monospace&quot;&gt;$Poller&lt;/font&gt;&lt;/span&gt;&lt;/div&gt;" style="whiteSpace=wrap;html=1;rounded=1;shadow=0;strokeWidth=1;glass=0;" vertex="1" parent="WIyWlLk6GJQsqaUBKTNV-1">
          <mxGeometry x="160" y="-280" width="120" height="80" as="geometry" />
        </mxCell>
        <mxCell id="EeYzjJS-_JsJaq9Gbelp-11" value="" style="edgeStyle=orthogonalEdgeStyle;rounded=0;orthogonalLoop=1;jettySize=auto;html=1;" edge="1" parent="WIyWlLk6GJQsqaUBKTNV-1" source="EeYzjJS-_JsJaq9Gbelp-9" target="EeYzjJS-_JsJaq9Gbelp-0">
          <mxGeometry relative="1" as="geometry" />
        </mxCell>
        <mxCell id="EeYzjJS-_JsJaq9Gbelp-28" value="" style="edgeStyle=orthogonalEdgeStyle;rounded=0;orthogonalLoop=1;jettySize=auto;html=1;fontSize=14;" edge="1" parent="WIyWlLk6GJQsqaUBKTNV-1" source="EeYzjJS-_JsJaq9Gbelp-9">
          <mxGeometry relative="1" as="geometry">
            <mxPoint x="439.99999999999955" y="-110" as="targetPoint" />
          </mxGeometry>
        </mxCell>
        <mxCell id="EeYzjJS-_JsJaq9Gbelp-9" value="&lt;span style=&quot;color: rgb(51 , 51 , 51) ; font-family: &amp;#34;open sans&amp;#34; , &amp;#34;clear sans&amp;#34; , &amp;#34;helvetica neue&amp;#34; , &amp;#34;helvetica&amp;#34; , &amp;#34;arial&amp;#34; , sans-serif ; font-size: 16px ; text-align: left ; background-color: rgb(255 , 255 , 255)&quot;&gt;NioEndpoint&lt;/span&gt;" style="whiteSpace=wrap;html=1;rounded=1;shadow=0;strokeWidth=1;glass=0;" vertex="1" parent="WIyWlLk6GJQsqaUBKTNV-1">
          <mxGeometry x="160" y="-140" width="120" height="60" as="geometry" />
        </mxCell>
        <mxCell id="EeYzjJS-_JsJaq9Gbelp-17" value="" style="edgeStyle=orthogonalEdgeStyle;rounded=0;orthogonalLoop=1;jettySize=auto;html=1;" edge="1" parent="WIyWlLk6GJQsqaUBKTNV-1" source="EeYzjJS-_JsJaq9Gbelp-13" target="EeYzjJS-_JsJaq9Gbelp-16">
          <mxGeometry relative="1" as="geometry" />
        </mxCell>
        <mxCell id="EeYzjJS-_JsJaq9Gbelp-13" value="&lt;span style=&quot;color: rgb(51 , 51 , 51) ; font-family: &amp;#34;lucida console&amp;#34; , &amp;#34;consolas&amp;#34; , &amp;#34;courier&amp;#34; , monospace ; font-size: 14.4px ; text-align: left ; background-color: rgb(243 , 244 , 244)&quot;&gt;ClientPoller&lt;/span&gt;" style="rhombus;whiteSpace=wrap;html=1;rounded=1;shadow=0;strokeWidth=1;glass=0;" vertex="1" parent="WIyWlLk6GJQsqaUBKTNV-1">
          <mxGeometry x="160" y="-454" width="120" height="94" as="geometry" />
        </mxCell>
        <mxCell id="EeYzjJS-_JsJaq9Gbelp-15" value="Yes" style="text;html=1;align=center;verticalAlign=middle;resizable=0;points=[];autosize=1;strokeColor=none;rounded=1;fontSize=14;" vertex="1" parent="WIyWlLk6GJQsqaUBKTNV-1">
          <mxGeometry x="225" y="-330" width="40" height="20" as="geometry" />
        </mxCell>
        <mxCell id="EeYzjJS-_JsJaq9Gbelp-16" value="&lt;font style=&quot;font-size: 14px&quot;&gt;Pass&lt;/font&gt;" style="whiteSpace=wrap;html=1;rounded=1;shadow=0;strokeWidth=1;glass=0;" vertex="1" parent="WIyWlLk6GJQsqaUBKTNV-1">
          <mxGeometry x="360" y="-437" width="120" height="60" as="geometry" />
        </mxCell>
        <mxCell id="EeYzjJS-_JsJaq9Gbelp-18" value="No" style="text;html=1;align=center;verticalAlign=middle;resizable=0;points=[];autosize=1;strokeColor=none;fontSize=14;" vertex="1" parent="WIyWlLk6GJQsqaUBKTNV-1">
          <mxGeometry x="285" y="-430" width="30" height="20" as="geometry" />
        </mxCell>
        <mxCell id="EeYzjJS-_JsJaq9Gbelp-24" value="" style="edgeStyle=orthogonalEdgeStyle;rounded=0;orthogonalLoop=1;jettySize=auto;html=1;fontSize=14;" edge="1" parent="WIyWlLk6GJQsqaUBKTNV-1" source="EeYzjJS-_JsJaq9Gbelp-21" target="EeYzjJS-_JsJaq9Gbelp-23">
          <mxGeometry relative="1" as="geometry" />
        </mxCell>
        <mxCell id="EeYzjJS-_JsJaq9Gbelp-21" value="&lt;span style=&quot;color: rgb(51 , 51 , 51) ; font-family: &amp;#34;lucida console&amp;#34; , &amp;#34;consolas&amp;#34; , &amp;#34;courier&amp;#34; , monospace ; font-size: 14.4px ; text-align: left ; background-color: rgb(243 , 244 , 244)&quot;&gt;RequestGroupInfo&lt;/span&gt;" style="whiteSpace=wrap;html=1;rounded=1;shadow=0;strokeWidth=1;glass=0;" vertex="1" parent="WIyWlLk6GJQsqaUBKTNV-1">
          <mxGeometry x="145" y="300" width="150" height="70" as="geometry" />
        </mxCell>
        <mxCell id="EeYzjJS-_JsJaq9Gbelp-23" value="&lt;font style=&quot;font-size: 15px&quot;&gt;List&amp;lt;Processor&amp;gt;&lt;/font&gt;" style="whiteSpace=wrap;html=1;rounded=1;shadow=0;strokeWidth=1;glass=0;" vertex="1" parent="WIyWlLk6GJQsqaUBKTNV-1">
          <mxGeometry x="160" y="450" width="120" height="60" as="geometry" />
        </mxCell>
        <mxCell id="EeYzjJS-_JsJaq9Gbelp-26" value="" style="edgeStyle=orthogonalEdgeStyle;rounded=0;orthogonalLoop=1;jettySize=auto;html=1;fontSize=14;fillColor=#1ba1e2;strokeColor=#006EAF;" edge="1" parent="WIyWlLk6GJQsqaUBKTNV-1" source="EeYzjJS-_JsJaq9Gbelp-25" target="EeYzjJS-_JsJaq9Gbelp-13">
          <mxGeometry relative="1" as="geometry" />
        </mxCell>
        <mxCell id="EeYzjJS-_JsJaq9Gbelp-25" value="i=14" style="ellipse;whiteSpace=wrap;html=1;rounded=1;fontSize=14;" vertex="1" parent="WIyWlLk6GJQsqaUBKTNV-1">
          <mxGeometry x="-50" y="-445.5" width="100" height="77" as="geometry" />
        </mxCell>
        <mxCell id="EeYzjJS-_JsJaq9Gbelp-29" value="&lt;pre style=&quot;background-color: #ffffff ; color: #080808 ; font-family: &amp;quot;jetbrains mono&amp;quot; ; font-size: 15.0pt&quot;&gt;&lt;span style=&quot;color: #8c8c8c ; font-style: italic&quot;&gt;extends AbstractJsseEndpoint&lt;/span&gt;&lt;/pre&gt;" style="text;html=1;strokeColor=none;fillColor=none;align=center;verticalAlign=middle;whiteSpace=wrap;rounded=0;fontSize=14;" vertex="1" parent="WIyWlLk6GJQsqaUBKTNV-1">
          <mxGeometry x="570" y="-120" width="40" height="20" as="geometry" />
        </mxCell>
        <mxCell id="EeYzjJS-_JsJaq9Gbelp-38" value="" style="curved=1;endArrow=classic;html=1;fontSize=14;" edge="1" parent="WIyWlLk6GJQsqaUBKTNV-1" source="EeYzjJS-_JsJaq9Gbelp-29">
          <mxGeometry width="50" height="50" relative="1" as="geometry">
            <mxPoint x="460" y="30" as="sourcePoint" />
            <mxPoint x="290" y="10" as="targetPoint" />
            <Array as="points">
              <mxPoint x="610" y="20" />
              <mxPoint x="550" y="10" />
              <mxPoint x="450" y="10" />
            </Array>
          </mxGeometry>
        </mxCell>
      </root>
    </mxGraphModel>
  </diagram>
</mxfile>
